<?xml version="1.0" encoding="UTF-8" standalone="no"?>
<!-- Created with Inkscape (http://www.inkscape.org/) -->

<svg
   xmlns:dc="http://purl.org/dc/elements/1.1/"
   xmlns:cc="http://creativecommons.org/ns#"
   xmlns:rdf="http://www.w3.org/1999/02/22-rdf-syntax-ns#"
   xmlns:svg="http://www.w3.org/2000/svg"
   xmlns="http://www.w3.org/2000/svg"
   xmlns:sodipodi="http://sodipodi.sourceforge.net/DTD/sodipodi-0.dtd"
   xmlns:inkscape="http://www.inkscape.org/namespaces/inkscape"
   id="svg3336"
   version="1.1"
   inkscape:version="0.91 r13725"
   xml:space="preserve"
   width="1200"
   height="674.99994"
   viewBox="0 0 1200 674.99994"
   sodipodi:docname="tcp-stream-run.svg"><metadata
     id="metadata3342"><rdf:RDF><cc:Work
         rdf:about=""><dc:format>image/svg+xml</dc:format><dc:type
           rdf:resource="http://purl.org/dc/dcmitype/StillImage" /><dc:title></dc:title></cc:Work></rdf:RDF></metadata><defs
     id="defs3340"><clipPath
       clipPathUnits="userSpaceOnUse"
       id="clipPath3350"><path
         d="m 0,1.2207e-4 960,0 0,539.99999793 -960,0 L 0,1.2207e-4 Z"
         id="path3352"
         inkscape:connector-curvature="0"
         style="clip-rule:evenodd" /></clipPath><clipPath
       clipPathUnits="userSpaceOnUse"
       id="clipPath3382"><path
         d="M 2.833e-6,540 960,540 960,1.2207e-4 l -960.000016852,0"
         id="path3384"
         inkscape:connector-curvature="0"
         style="clip-rule:evenodd" /></clipPath><clipPath
       clipPathUnits="userSpaceOnUse"
       id="clipPath3392"><path
         d="M -2.375e-6,540 960,540 960,1.2207e-4 l -960.000002375,0"
         id="path3394"
         inkscape:connector-curvature="0"
         style="clip-rule:evenodd" /></clipPath><clipPath
       clipPathUnits="userSpaceOnUse"
       id="clipPath3402"><path
         d="M 1.292e-6,540 960,540 960,1.2207e-4 l -959.999998708,0"
         id="path3404"
         inkscape:connector-curvature="0"
         style="clip-rule:evenodd" /></clipPath><clipPath
       clipPathUnits="userSpaceOnUse"
       id="clipPath3412"><path
         d="M 2.833e-6,540 960,540 960,1.2207e-4 l -960.000016852,0"
         id="path3414"
         inkscape:connector-curvature="0"
         style="clip-rule:evenodd" /></clipPath><clipPath
       clipPathUnits="userSpaceOnUse"
       id="clipPath3422"><path
         d="M 1.4054e-5,540 960,540 960,0 -5.631e-6,0"
         id="path3424"
         inkscape:connector-curvature="0"
         style="clip-rule:evenodd" /></clipPath><clipPath
       clipPathUnits="userSpaceOnUse"
       id="clipPath3432"><path
         d="M -3.498e-6,540 960,540 960,1.2207e-4 -3.498e-6,1.2207e-4"
         id="path3434"
         inkscape:connector-curvature="0"
         style="clip-rule:evenodd" /></clipPath><clipPath
       clipPathUnits="userSpaceOnUse"
       id="clipPath3442"><path
         d="M 1.4305e-5,0 960.00001,0 l 0,540 -959.999995695,0 0,-540 z"
         id="path3444"
         inkscape:connector-curvature="0"
         style="clip-rule:evenodd" /></clipPath><clipPath
       clipPathUnits="userSpaceOnUse"
       id="clipPath3454"><path
         d="M 1.4305e-5,0 960.00001,0 l 0,540 -959.999995695,0 0,-540 z"
         id="path3456"
         inkscape:connector-curvature="0"
         style="clip-rule:evenodd" /></clipPath><clipPath
       clipPathUnits="userSpaceOnUse"
       id="clipPath3466"><path
         d="M 1.4305e-5,0 960.00001,0 l 0,540 -959.999995695,0 0,-540 z"
         id="path3468"
         inkscape:connector-curvature="0"
         style="clip-rule:evenodd" /></clipPath><clipPath
       clipPathUnits="userSpaceOnUse"
       id="clipPath3478"><path
         d="M 1.4305e-5,0 960.00001,0 l 0,540 -959.999995695,0 0,-540 z"
         id="path3480"
         inkscape:connector-curvature="0"
         style="clip-rule:evenodd" /></clipPath><clipPath
       clipPathUnits="userSpaceOnUse"
       id="clipPath3490"><path
         d="M 1.4305e-5,0 960.00001,0 l 0,540 -959.999995695,0 0,-540 z"
         id="path3492"
         inkscape:connector-curvature="0"
         style="clip-rule:evenodd" /></clipPath><clipPath
       clipPathUnits="userSpaceOnUse"
       id="clipPath3502"><path
         d="M 1.4305e-5,0 960.00001,0 l 0,540 -959.999995695,0 0,-540 z"
         id="path3504"
         inkscape:connector-curvature="0"
         style="clip-rule:evenodd" /></clipPath><clipPath
       clipPathUnits="userSpaceOnUse"
       id="clipPath3514"><path
         d="M 1.4305e-5,0 960.00001,0 l 0,540 -959.999995695,0 0,-540 z"
         id="path3516"
         inkscape:connector-curvature="0"
         style="clip-rule:evenodd" /></clipPath><clipPath
       clipPathUnits="userSpaceOnUse"
       id="clipPath3530"><path
         d="M 1.4305e-5,0 960.00001,0 l 0,540 -959.999995695,0 0,-540 z"
         id="path3532"
         inkscape:connector-curvature="0"
         style="clip-rule:evenodd" /></clipPath><clipPath
       clipPathUnits="userSpaceOnUse"
       id="clipPath3542"><path
         d="M 1.4305e-5,0 960.00001,0 l 0,540 -959.999995695,0 0,-540 z"
         id="path3544"
         inkscape:connector-curvature="0"
         style="clip-rule:evenodd" /></clipPath><clipPath
       clipPathUnits="userSpaceOnUse"
       id="clipPath3558"><path
         d="M 1.4305e-5,0 960.00001,0 l 0,540 -959.999995695,0 0,-540 z"
         id="path3560"
         inkscape:connector-curvature="0"
         style="clip-rule:evenodd" /></clipPath><clipPath
       clipPathUnits="userSpaceOnUse"
       id="clipPath3584"><path
         d="M 7.8505e-5,540 960,540 960,1.2207e-4 l -959.999921495,0"
         id="path3586"
         inkscape:connector-curvature="0"
         style="clip-rule:evenodd" /></clipPath><clipPath
       clipPathUnits="userSpaceOnUse"
       id="clipPath3594"><path
         d="M 7.8505e-5,540 960,540 960,1.2207e-4 l -959.999921495,0"
         id="path3596"
         inkscape:connector-curvature="0"
         style="clip-rule:evenodd" /></clipPath><clipPath
       clipPathUnits="userSpaceOnUse"
       id="clipPath3612"><path
         d="M 1.4305e-5,0 960.00001,0 l 0,540 -959.999995695,0 0,-540 z"
         id="path3614"
         inkscape:connector-curvature="0"
         style="clip-rule:evenodd" /></clipPath><clipPath
       clipPathUnits="userSpaceOnUse"
       id="clipPath3630"><path
         d="M 1.4305e-5,0 960.00001,0 l 0,540 -959.999995695,0 0,-540 z"
         id="path3632"
         inkscape:connector-curvature="0"
         style="clip-rule:evenodd" /></clipPath><clipPath
       clipPathUnits="userSpaceOnUse"
       id="clipPath3642"><path
         d="M 1.4305e-5,0 960.00001,0 l 0,540 -959.999995695,0 0,-540 z"
         id="path3644"
         inkscape:connector-curvature="0"
         style="clip-rule:evenodd" /></clipPath><clipPath
       clipPathUnits="userSpaceOnUse"
       id="clipPath3654"><path
         d="M 1.4305e-5,0 960.00001,0 l 0,540 -959.999995695,0 0,-540 z"
         id="path3656"
         inkscape:connector-curvature="0"
         style="clip-rule:evenodd" /></clipPath><clipPath
       clipPathUnits="userSpaceOnUse"
       id="clipPath3666"><path
         d="M 1.4305e-5,0 960.00001,0 l 0,540 -959.999995695,0 0,-540 z"
         id="path3668"
         inkscape:connector-curvature="0"
         style="clip-rule:evenodd" /></clipPath><clipPath
       clipPathUnits="userSpaceOnUse"
       id="clipPath3678"><path
         d="M 1.4305e-5,0 960.00001,0 l 0,540 -959.999995695,0 0,-540 z"
         id="path3680"
         inkscape:connector-curvature="0"
         style="clip-rule:evenodd" /></clipPath><clipPath
       clipPathUnits="userSpaceOnUse"
       id="clipPath3690"><path
         d="M 1.4305e-5,0 960.00001,0 l 0,540 -959.999995695,0 0,-540 z"
         id="path3692"
         inkscape:connector-curvature="0"
         style="clip-rule:evenodd" /></clipPath><clipPath
       clipPathUnits="userSpaceOnUse"
       id="clipPath3702"><path
         d="M 1.4305e-5,0 960.00001,0 l 0,540 -959.999995695,0 0,-540 z"
         id="path3704"
         inkscape:connector-curvature="0"
         style="clip-rule:evenodd" /></clipPath><clipPath
       clipPathUnits="userSpaceOnUse"
       id="clipPath3714"><path
         d="M 1.4305e-5,0 960.00001,0 l 0,540 -959.999995695,0 0,-540 z"
         id="path3716"
         inkscape:connector-curvature="0"
         style="clip-rule:evenodd" /></clipPath><clipPath
       clipPathUnits="userSpaceOnUse"
       id="clipPath3726"><path
         d="M 1.4305e-5,0 960.00001,0 l 0,540 -959.999995695,0 0,-540 z"
         id="path3728"
         inkscape:connector-curvature="0"
         style="clip-rule:evenodd" /></clipPath><clipPath
       clipPathUnits="userSpaceOnUse"
       id="clipPath3738"><path
         d="M 1.4305e-5,0 960.00001,0 l 0,540 -959.999995695,0 0,-540 z"
         id="path3740"
         inkscape:connector-curvature="0"
         style="clip-rule:evenodd" /></clipPath></defs><sodipodi:namedview
     pagecolor="#ffffff"
     bordercolor="#666666"
     borderopacity="1"
     objecttolerance="10"
     gridtolerance="10"
     guidetolerance="10"
     inkscape:pageopacity="0"
     inkscape:pageshadow="2"
     inkscape:window-width="684"
     inkscape:window-height="480"
     id="namedview3338"
     showgrid="false"
     fit-margin-top="0"
     fit-margin-left="0"
     fit-margin-right="0"
     fit-margin-bottom="0"
     inkscape:zoom="0.61416667"
     inkscape:cx="650.4749"
     inkscape:cy="337.49984"
     inkscape:window-x="0"
     inkscape:window-y="0"
     inkscape:window-maximized="1"
     inkscape:current-layer="g3344" /><g
     id="g3344"
     inkscape:groupmode="layer"
     inkscape:label="Akka Stream"
     transform="matrix(1.25,0,0,-1.25,0,675.00008)"><g
       id="g3346"><g
         id="g3348"
         clip-path="url(#clipPath3350)"><path
           d="m 0,6.1035e-5 960,0 0,539.999998965 -960,0 L 0,6.1035e-5 Z"
           style="fill:#ffffff;fill-opacity:1;fill-rule:evenodd;stroke:none"
           id="path3354"
           inkscape:connector-curvature="0" /></g></g><g
       id="g3356"><path
         d="M 288.8,317.54 556.97,402"
         style="fill:none;stroke:#5b9bd5;stroke-width:2;stroke-linecap:butt;stroke-linejoin:miter;stroke-miterlimit:10;stroke-dasharray:8, 6;stroke-dashoffset:0;stroke-opacity:1"
         id="path3358"
         inkscape:connector-curvature="0" /></g><path
       d="m 167.4,313.3 141,0 0,12.1 24.2,-24.2 -24.2,-24.2 0,12.1 -141,0 0,24.2 z"
       style="fill:#5b9bd5;fill-opacity:0.50196037;fill-rule:evenodd;stroke:none"
       id="path3360"
       inkscape:connector-curvature="0" /><path
       d="m 47.2,239.6 0,36.49 c 0,20.15 16.336,36.48 36.487,36.48 l 64.663,0.01 0,10.42 20.85,-20.85 -20.85,-20.85 0,10.43 -64.663,0 c -8.636,0 -15.637,-7.01 -15.637,-15.64 l 0,-36.49 -20.85,0 z"
       style="fill:#5b9bd5;fill-opacity:0.50196037;fill-rule:evenodd;stroke:none"
       id="path3362"
       inkscape:connector-curvature="0" /><path
       d="m 21.7,228.7 145.8,0 0,140.4 -145.8,0 0,-140.4 z"
       style="fill:none;stroke:#000000;stroke-width:3;stroke-linecap:butt;stroke-linejoin:miter;stroke-miterlimit:10;stroke-dasharray:none;stroke-opacity:1"
       id="path3364"
       inkscape:connector-curvature="0" /><path
       d="m 169.5,282.3 30.4,0 0,39.8 -30.4,0 0,-39.8 z"
       style="fill:none;stroke:#000000;stroke-width:3;stroke-linecap:butt;stroke-linejoin:miter;stroke-miterlimit:10;stroke-dasharray:none;stroke-opacity:1"
       id="path3366"
       inkscape:connector-curvature="0" /><path
       d="m 169.5,322.1 30.39,-19.87"
       style="fill:none;stroke:#000000;stroke-width:0.60000002;stroke-linecap:butt;stroke-linejoin:miter;stroke-miterlimit:10;stroke-dasharray:none;stroke-opacity:1"
       id="path3368"
       inkscape:connector-curvature="0" /><path
       d="m 169.5,282.87 30.39,19.23"
       style="fill:none;stroke:#000000;stroke-width:0.60000002;stroke-linecap:butt;stroke-linejoin:miter;stroke-miterlimit:10;stroke-dasharray:none;stroke-opacity:1"
       id="path3370"
       inkscape:connector-curvature="0" /><path
       d="m 199.8,300 c 0,10.27 8.46,18.6 18.9,18.6 10.44,0 18.9,-8.33 18.9,-18.6 0,-10.27 -8.46,-18.6 -18.9,-18.6 -10.44,0 -18.9,8.33 -18.9,18.6 z"
       style="fill:#5b9bd5;fill-opacity:1;fill-rule:evenodd;stroke:none"
       id="path3372"
       inkscape:connector-curvature="0" /><path
       d="m 95.8,300.8 c 0,7.95 6.45,14.4 14.4,14.4 7.95,0 14.4,-6.45 14.4,-14.4 0,-7.95 -6.45,-14.4 -14.4,-14.4 -7.95,0 -14.4,6.45 -14.4,14.4 z"
       style="fill:#5b9bd5;fill-opacity:1;fill-rule:evenodd;stroke:none"
       id="path3374"
       inkscape:connector-curvature="0" /><path
       d="m 46.8,273.3 c 0,7.23 5.328,13.1 11.9,13.1 6.572,0 11.9,-5.87 11.9,-13.1 0,-7.23 -5.328,-13.1 -11.9,-13.1 -6.572,0 -11.9,5.87 -11.9,13.1 z"
       style="fill:#5b9bd5;fill-opacity:1;fill-rule:evenodd;stroke:none"
       id="path3376"
       inkscape:connector-curvature="0" /><g
       id="g3378"><g
         id="g3380"
         clip-path="url(#clipPath3382)"><path
           d="m 207,419.29 0.03,-4.73 0.1,-4.68 0.15,-4.62 0.21,-4.51 0.12,-2.2 0.14,-2.16 0.15,-2.11 0.15,-2.06 0.17,-2.01 0.17,-1.94 0.19,-1.89 0.2,-1.81 0.2,-1.75 0.22,-1.66 0.22,-1.57 0.22,-1.5 0.23,-1.4 0.24,-1.3 0.24,-1.21 0.25,-1.11 0.26,-0.99 0.26,-0.88 0.27,-0.77 0.27,-0.66 0.29,-0.54 0.33,-0.43 0.4,-0.32 0.36,-0.1 0.26,-0.08 -0.18,0.09 0.27,-0.21 -0.09,0.09 0.27,-0.36 -0.04,0.07 0.26,-0.49 -0.02,0.04 0.26,-0.62 -0.01,0.04 0.25,-0.74 0,0.02 0.25,-0.87 0,0.02 0.25,-0.98 0,0.01 0.25,-1.09 -0.01,0.02 0.24,-1.2 0,0.01 0.24,-1.29 -0.01,0 0.24,-1.39 0,0.01 0.22,-1.49 0,0.01 0.22,-1.58 0,0 0.21,-1.65 0,0 0.21,-1.73 0,0.01 0.19,-1.81 0,0 0.19,-1.88 0,0.01 0.17,-1.95 0,0.01 0.16,-2.01 0,0.01 0.16,-2.06 0,0 0.15,-2.11 0,0 0.14,-2.15 0,0.01 0.12,-2.2 0,0 0.21,-4.5 0,0.01 0.15,-4.61 0,0 0.08,-4.4 1,0.02 -0.09,4.41 -0.15,4.61 -0.21,4.51 -0.12,2.2 -0.13,2.16 -0.15,2.12 -0.16,2.05 -0.16,2.01 -0.18,1.95 -0.19,1.88 -0.19,1.82 -0.2,1.73 -0.22,1.67 -0.22,1.58 -0.23,1.49 -0.23,1.4 -0.23,1.31 -0.25,1.2 -0.25,1.1 -0.26,1 -0.26,0.88 -0.26,0.77 -0.28,0.65 -0.29,0.54 -0.32,0.43 -0.4,0.33 -0.36,0.1 -0.26,0.07 0.17,-0.09 -0.27,0.22 0.09,-0.09 -0.26,0.35 0.04,-0.06 -0.26,0.49 0.01,-0.04 -0.26,0.61 0.02,-0.03 -0.26,0.75 0.01,-0.02 -0.26,0.86 0.01,-0.02 -0.26,0.98 0.01,-0.02 -0.25,1.09 0,-0.01 -0.24,1.2 0,-0.01 -0.23,1.3 0,-0.01 -0.23,1.39 0,-0.01 -0.23,1.49 0.01,0 -0.22,1.56 0,0 -0.22,1.66 0,-0.01 -0.2,1.74 0,0 -0.2,1.8 0.01,0 -0.19,1.88 0,0 -0.17,1.94 0,0 -0.17,2 0,0 -0.16,2.05 0,0 -0.15,2.11 0,-0.01 -0.13,2.16 0,0 -0.12,2.19 0,0 -0.21,4.5 0,-0.01 -0.15,4.62 0,-0.01 -0.1,4.68 0,-0.01 -0.03,4.73 -1,-0.01 z m 8.79,-94.89 3.05,-5.97 2.95,6.03 -6,-0.06 z"
           style="fill:#5b9bd5;fill-opacity:1;fill-rule:nonzero;stroke:none"
           id="path3386"
           inkscape:connector-curvature="0" /></g></g><g
       id="g3388"><g
         id="g3390"
         clip-path="url(#clipPath3392)"><path
           d="m 208.01,419.29 -0.03,-1.57 -0.08,-1.58 -0.13,-1.57 -0.19,-1.57 -0.24,-1.57 -0.29,-1.56 -0.34,-1.56 -0.39,-1.55 -0.43,-1.54 -0.49,-1.55 -0.52,-1.53 -0.58,-1.52 -1.28,-3.01 -1.45,-2.97 -1.62,-2.91 -1.77,-2.87 -1.93,-2.8 -2.07,-2.73 -2.2,-2.66 -2.33,-2.58 -2.45,-2.49 -2.58,-2.4 -2.68,-2.3 -2.79,-2.2 -2.87,-2.08 -2.97,-1.97 -3.05,-1.85 -3.13,-1.72 -3.19,-1.59 -3.26,-1.44 -3.31,-1.29 -3.36,-1.15 -3.4,-0.98 -3.44,-0.83 -3.46,-0.64 -1.75,-0.26 -1.75,-0.21 -1.74,-0.16 -1.75,-0.12 -1.76,-0.08 -1.75,-0.02 0.01,0 -1.74,-0.05 0.01,0 -1.74,-0.07 0.01,0 -1.74,-0.12 0.01,0 -1.74,-0.17 0.02,0.01 -1.73,-0.21 0.01,0 -1.73,-0.26 0.02,0.01 -3.44,-0.65 0.02,0.01 -3.41,-0.82 0.02,0 -3.38,-0.97 0.02,0.01 -3.33,-1.14 0.02,0 -3.3,-1.29 0.02,0.01 -3.24,-1.43 0.03,0.01 -3.177,-1.58 0.018,0.01 -3.105,-1.71 0.018,0.01 -3.038,-1.84 0.018,0.01 -2.947,-1.96 0.016,0.01 -2.865,-2.07 0.017,0.02 -2.767,-2.19 0.015,0.01 -2.67,-2.29 0.016,0.02 -2.558,-2.39 0.015,0.02 -2.437,-2.48 0.015,0.02 -2.318,-2.57 0.014,0.02 -2.19,-2.64 0.014,0.02 -2.055,-2.72 0.013,0.02 -1.913,-2.78 0.013,0.02 -1.762,-2.84 0.012,0.02 -1.605,-2.89 0.012,0.02 -1.44,-2.95 0.011,0.03 -1.275,-2.99 0.008,0.02 -0.57,-1.51 0.004,0.02 -0.525,-1.52 0.005,0.02 -0.48,-1.53 0.005,0.01 -0.428,-1.53 0.003,0.01 -0.39,-1.54 0.004,0.02 -0.33,-1.53 0.003,0.01 -0.293,-1.55 0.004,0.02 -0.233,-1.55 0.004,0.03 -0.097,-1.23 -0.996,0.07 0.097,1.26 0.237,1.58 0.295,1.56 0.334,1.55 0.393,1.55 0.432,1.55 0.484,1.54 0.53,1.53 0.576,1.52 1.284,3.01 1.451,2.97 1.618,2.92 1.775,2.86 1.926,2.8 2.068,2.73 2.204,2.65 2.332,2.59 2.452,2.49 2.573,2.4 2.686,2.3 2.783,2.2 2.882,2.08 2.965,1.97 3.055,1.85 3.123,1.72 3.192,1.59 3.26,1.44 3.31,1.3 3.36,1.15 3.41,0.98 3.43,0.82 3.47,0.65 1.74,0.26 1.74,0.21 1.76,0.17 1.75,0.12 1.75,0.07 1.75,0.05 1.74,0.02 -0.01,0 1.74,0.07 -0.02,0 1.74,0.12 -0.01,0 1.73,0.17 -0.01,0 1.73,0.21 -0.01,-0.01 1.73,0.26 -0.02,0 3.45,0.63 -0.03,0 3.41,0.82 -0.02,-0.01 3.38,0.98 -0.03,-0.01 3.35,1.14 -0.02,-0.01 3.28,1.29 -0.02,-0.01 3.24,1.43 -0.02,0 3.18,1.57 -0.02,-0.01 3.11,1.71 -0.02,-0.01 3.03,1.84 -0.02,-0.01 2.96,1.95 -0.02,-0.01 2.86,2.07 -0.02,-0.01 2.77,2.19 -0.02,-0.01 2.67,2.28 -0.01,-0.01 2.56,2.39 -0.02,-0.02 2.44,2.48 -0.02,-0.02 2.32,2.57 -0.01,-0.02 2.19,2.64 -0.02,-0.02 2.06,2.72 -0.01,-0.02 1.91,2.78 -0.01,-0.02 1.76,2.84 -0.01,-0.02 1.6,2.9 -0.01,-0.03 1.44,2.95 -0.01,-0.02 1.26,2.98 0,-0.02 0.57,1.51 -0.01,-0.01 0.53,1.51 -0.01,-0.01 0.48,1.53 0,-0.02 0.43,1.53 -0.01,-0.01 0.39,1.54 0,-0.02 0.33,1.55 0,-0.01 0.29,1.54 0,-0.02 0.23,1.55 0,-0.01 0.18,1.55 0,-0.01 0.14,1.55 0,-0.02 0.07,1.56 0,-0.02 0.03,1.56 1,-0.01 z M 62.282,292.08 l -3.399,-5.78 -2.587,6.19 5.986,-0.41 z"
           style="fill:#5b9bd5;fill-opacity:1;fill-rule:nonzero;stroke:none"
           id="path3396"
           inkscape:connector-curvature="0" /></g></g><g
       id="g3398"><g
         id="g3400"
         clip-path="url(#clipPath3402)"><path
           d="m 208.04,419.28 -0.07,-3.09 -0.21,-3.11 -0.35,-3.08 -0.47,-3.07 -0.6,-3.04 -0.72,-3.01 -0.83,-2.98 -0.95,-2.93 -1.06,-2.89 -1.16,-2.83 -1.26,-2.76 -1.35,-2.71 -1.44,-2.63 -1.53,-2.55 -1.61,-2.47 -1.68,-2.38 -1.76,-2.28 -1.82,-2.18 -1.89,-2.07 -1.95,-1.95 -1.99,-1.84 -2.06,-1.7 -2.1,-1.57 -2.14,-1.45 -2.18,-1.29 -2.21,-1.13 -2.24,-0.98 -2.26,-0.83 -2.29,-0.64 -1.15,-0.26 -1.15,-0.21 -1.16,-0.17 -1.16,-0.12 -1.15,-0.07 -1.15,-0.03 -2.28,-0.05 0.02,0 -2.27,-0.16 0.02,0 -2.26,-0.27 0.02,0 -2.25,-0.37 0.02,0 -2.23,-0.47 0.02,0 -2.22,-0.56 0.02,0.01 -2.19,-0.66 0.02,0 -2.15,-0.74 0.02,0.01 -2.12,-0.83 0.02,0.01 -2.07,-0.92 0.01,0.01 -2.03,-0.98 0.02,0.01 -1.99,-1.07 0.02,0.01 -1.93,-1.12 0.02,0.01 -1.88,-1.2 0.02,0.01 -1.82,-1.26 0.02,0.01 -1.74,-1.32 0.02,0.01 -1.68,-1.38 0.02,0.02 -1.6,-1.43 0.02,0.01 -1.53,-1.48 0.02,0.02 -1.43,-1.53 0.01,0.02 -1.34,-1.57 0.02,0.02 -1.25,-1.6 0.01,0.02 -1.15,-1.65 0.01,0.03 -1.05,-1.68 0.02,0.03 -0.95,-1.7 0.02,0.03 -0.84,-1.73 0.02,0.03 -0.72,-1.75 0.01,0.03 -0.59,-1.76 0.02,0.06 -0.45,-2.2 -0.98,0.2 0.45,2.23 0.61,1.81 0.73,1.77 0.84,1.76 0.96,1.71 1.06,1.7 1.17,1.66 1.26,1.63 1.36,1.58 1.45,1.54 1.54,1.49 1.61,1.45 1.69,1.39 1.75,1.33 1.84,1.28 1.89,1.21 1.94,1.13 2.01,1.08 2.05,0.99 2.09,0.92 2.14,0.83 2.17,0.75 2.21,0.67 2.23,0.56 2.25,0.48 2.28,0.38 2.28,0.27 2.3,0.17 2.29,0.05 0,0 1.14,0.03 -0.01,0 1.13,0.07 -0.02,0 1.14,0.12 -0.02,-0.01 1.14,0.17 -0.02,0 1.13,0.21 -0.02,-0.01 1.14,0.25 -0.03,-0.01 2.25,0.64 -0.04,-0.01 2.24,0.81 -0.03,-0.01 2.21,0.97 -0.03,-0.02 2.18,1.13 -0.02,-0.02 2.15,1.28 -0.02,-0.02 2.11,1.43 -0.02,-0.02 2.08,1.56 -0.02,-0.01 2.04,1.69 -0.02,-0.02 1.98,1.82 -0.02,-0.01 1.94,1.93 -0.02,-0.02 1.87,2.06 -0.01,-0.02 1.81,2.16 -0.01,-0.01 1.74,2.26 -0.01,-0.01 1.67,2.36 -0.01,-0.02 1.6,2.46 -0.01,-0.02 1.52,2.53 -0.01,-0.01 1.43,2.62 -0.01,-0.02 1.35,2.68 -0.01,-0.01 1.24,2.75 0,-0.02 1.15,2.81 -0.01,-0.01 1.05,2.86 0,-0.02 0.94,2.92 0,-0.02 0.83,2.96 -0.01,-0.02 0.72,2.99 -0.01,-0.02 0.59,3.02 0,-0.02 0.47,3.06 0,-0.02 0.35,3.06 -0.01,-0.03 0.21,3.09 0,-0.03 0.07,3.09 1,-0.03 z m -93.99,-98.62 -3.75,-5.56 -2.2,6.33 5.95,-0.77 z"
           style="fill:#5b9bd5;fill-opacity:1;fill-rule:nonzero;stroke:none"
           id="path3406"
           inkscape:connector-curvature="0" /></g></g><g
       id="g3408"><g
         id="g3410"
         clip-path="url(#clipPath3412)"><path
           d="m 207,419.28 0.06,-2.39 0.18,-2.41 0.28,-2.4 0.41,-2.37 0.5,-2.36 0.6,-2.34 0.7,-2.31 0.8,-2.27 0.89,-2.24 0.97,-2.19 1.06,-2.15 1.13,-2.09 1.21,-2.05 1.28,-1.97 1.35,-1.91 1.41,-1.85 1.48,-1.76 1.53,-1.69 1.58,-1.61 1.64,-1.51 1.67,-1.43 1.72,-1.32 1.76,-1.22 1.8,-1.11 1.83,-1 1.85,-0.88 1.88,-0.76 1.9,-0.64 1.92,-0.5 1.93,-0.37 1.93,-0.22 1.94,-0.07 1.9,-0.08 -0.04,0 1.91,-0.21 -0.04,0 1.9,-0.36 -0.03,0.01 1.88,-0.5 -0.03,0.01 1.86,-0.62 -0.03,0.01 1.86,-0.75 -0.03,0.01 1.83,-0.87 -0.03,0.02 1.81,-0.99 -0.02,0.01 1.77,-1.1 -0.02,0.02 1.74,-1.21 -0.02,0.02 1.7,-1.32 -0.02,0.02 1.66,-1.4 -0.02,0.01 1.62,-1.5 -0.01,0.02 1.56,-1.59 -0.01,0.01 1.51,-1.67 -0.01,0.01 1.46,-1.75 -0.01,0.02 1.4,-1.83 -0.01,0.02 1.34,-1.9 -0.02,0.02 1.27,-1.97 -0.01,0.02 1.2,-2.02 -0.01,0.02 1.13,-2.08 -0.01,0.01 1.05,-2.12 -0.01,0.02 0.96,-2.18 -0.01,0.01 0.88,-2.21 -0.01,0.02 0.8,-2.26 -0.01,0.02 0.69,-2.28 0,0.01 0.6,-2.31 -0.01,0.02 0.5,-2.34 0,0.02 0.39,-2.35 -0.01,0.03 0.21,-2.15 1,0.1 -0.21,2.16 -0.4,2.39 -0.5,2.36 -0.61,2.33 -0.69,2.31 -0.81,2.28 -0.88,2.23 -0.97,2.2 -1.06,2.14 -1.13,2.1 -1.21,2.04 -1.28,1.98 -1.35,1.91 -1.41,1.84 -1.48,1.77 -1.53,1.69 -1.58,1.61 -1.64,1.51 -1.67,1.42 -1.72,1.33 -1.76,1.22 -1.8,1.11 -1.83,1 -1.85,0.88 -1.88,0.76 -1.9,0.64 -1.92,0.5 -1.93,0.37 -1.94,0.22 -1.93,0.07 -1.91,0.08 0.04,0 -1.9,0.21 0.04,0 -1.9,0.36 0.03,-0.01 -1.88,0.49 0.03,-0.01 -1.87,0.63 0.03,-0.01 -1.85,0.75 0.03,-0.01 -1.83,0.87 0.02,-0.02 -1.8,0.99 0.02,-0.02 -1.77,1.1 0.02,-0.01 -1.74,1.21 0.02,-0.02 -1.7,1.31 0.02,-0.02 -1.66,1.41 0.02,-0.01 -1.62,1.5 0.01,-0.02 -1.56,1.59 0.01,-0.01 -1.51,1.67 0.01,-0.01 -1.46,1.74 0.01,-0.01 -1.4,1.83 0.01,-0.02 -1.34,1.9 0.01,-0.02 -1.26,1.96 0.01,-0.02 -1.2,2.03 0.01,-0.02 -1.13,2.08 0.01,-0.02 -1.05,2.13 0.01,-0.02 -0.96,2.18 0.01,-0.02 -0.89,2.22 0.01,-0.02 -0.79,2.25 0.01,-0.02 -0.7,2.29 0.01,-0.02 -0.6,2.32 0,-0.03 -0.49,2.34 0,-0.02 -0.4,2.36 0.01,-0.03 -0.29,2.37 0,-0.02 -0.17,2.39 0,-0.03 -0.06,2.39 -1,-0.03 z m 78.53,-96.02 3.38,-5.79 2.61,6.18 -5.99,-0.39 z"
           style="fill:#5b9bd5;fill-opacity:1;fill-rule:nonzero;stroke:none"
           id="path3416"
           inkscape:connector-curvature="0" /></g></g><g
       id="g3418"><g
         id="g3420"
         clip-path="url(#clipPath3422)"><path
           d="m 307.6,271.8 c 0,-9.72 -4.96,-17.6 -11.07,-17.6 l -41.16,0 c -6.11,0 -11.07,-7.88 -11.07,-17.6 0,9.72 -4.96,17.6 -11.07,17.6 l -41.16,0 c -6.11,0 -11.07,7.88 -11.07,17.6"
           style="fill:none;stroke:#5b9bd5;stroke-width:2;stroke-linecap:butt;stroke-linejoin:miter;stroke-miterlimit:10;stroke-dasharray:none;stroke-opacity:1"
           id="path3426"
           inkscape:connector-curvature="0" /></g></g><g
       id="g3428"><g
         id="g3430"
         clip-path="url(#clipPath3432)"><path
           d="m 44.8,378.2 c 0,9.67 4.928,17.5 11.007,17.5 l 140.583,0 c 6.07,0 11,7.83 11,17.5 0,-9.67 4.93,-17.5 11.01,-17.5 l 100.79,0 c 6.08,0 11.01,-7.84 11.01,-17.5"
           style="fill:none;stroke:#5b9bd5;stroke-width:2;stroke-linecap:butt;stroke-linejoin:miter;stroke-miterlimit:10;stroke-dasharray:none;stroke-opacity:1"
           id="path3436"
           inkscape:connector-curvature="0" /></g></g><g
       id="g3438"><g
         id="g3440"
         clip-path="url(#clipPath3442)"><text
           transform="matrix(1,0,0,-1,243.8,220.9)"
           style="font-variant:normal;font-weight:normal;font-size:18px;font-family:Arial;-inkscape-font-specification:ArialMT;writing-mode:lr-tb;fill:#000000;fill-opacity:1;fill-rule:nonzero;stroke:none"
           id="text3446"><tspan
             x="0 5.994 16.002001 26.01 37.007999 47.015999 53.009998 63.018002 73.026001 82.026001"
             y="0"
             sodipodi:role="line"
             id="tspan3448">runForeach</tspan></text>
</g></g><g
       id="g3450"><g
         id="g3452"
         clip-path="url(#clipPath3454)"><text
           transform="matrix(1,0,0,-1,335.83,220.9)"
           style="font-variant:normal;font-weight:normal;font-size:18px;font-family:Arial;-inkscape-font-specification:ArialMT;writing-mode:lr-tb;fill:#000000;fill-opacity:1;fill-rule:nonzero;stroke:none"
           id="text3458"><tspan
             x="0 6"
             y="0"
             sodipodi:role="line"
             id="tspan3460">()</tspan></text>
</g></g><g
       id="g3462"><g
         id="g3464"
         clip-path="url(#clipPath3466)"><text
           transform="matrix(1,0,0,-1,25.525,427.23)"
           style="font-variant:normal;font-weight:normal;font-size:18px;font-family:Arial;-inkscape-font-specification:ArialMT;writing-mode:lr-tb;fill:#000000;fill-opacity:1;fill-rule:nonzero;stroke:none"
           id="text3470"><tspan
             x="0 12.6 22.608 32.616001 42.624001 47.987999 53.981998 63.990002 73.998001 91.998001 104.004 109.008 115.002 125.01 135.01801 150.174"
             y="0"
             sodipodi:role="line"
             id="tspan3472">when run…Stream </tspan></text>
</g></g><g
       id="g3474"><g
         id="g3476"
         clip-path="url(#clipPath3478)"><text
           transform="matrix(1,0,0,-1,180.55,427.23)"
           style="font-variant:normal;font-weight:normal;font-size:18px;font-family:Arial;-inkscape-font-specification:ArialMT;writing-mode:lr-tb;fill:#000000;fill-opacity:1;fill-rule:nonzero;stroke:none"
           id="text3482"><tspan
             x="0 10.008 15.174"
             y="0"
             sodipodi:role="line"
             id="tspan3484">of </tspan></text>
</g></g><g
       id="g3486"><g
         id="g3488"
         clip-path="url(#clipPath3490)"><text
           transform="matrix(1,0,0,-1,200.58,427.23)"
           style="font-variant:normal;font-weight:normal;font-size:18px;font-family:Arial;-inkscape-font-specification:ArialMT;writing-mode:lr-tb;fill:#000000;fill-opacity:1;fill-rule:nonzero;stroke:none"
           id="text3494"><tspan
             x="0 5.0040002 15.012 24.011999 34.02 49.175999 53.172001 63.18 73.188004 86.183998 96.192001 106.2 116.208 126.216 135.216 140.22 144.216 154.224"
             y="0"
             sodipodi:role="line"
             id="tspan3496">IncomingConnection</tspan></text>
</g></g><g
       id="g3498"><g
         id="g3500"
         clip-path="url(#clipPath3502)"><text
           transform="matrix(1,0,0,-1,364.8,427.23)"
           style="font-variant:normal;font-weight:normal;font-size:18px;font-family:Arial;-inkscape-font-specification:ArialMT;writing-mode:lr-tb;fill:#000000;fill-opacity:1;fill-rule:nonzero;stroke:none"
           id="text3506"><tspan
             x="0 6 15.006"
             y="0"
             sodipodi:role="line"
             id="tspan3508">(s)</tspan></text>
</g></g><g
       id="g3510"><g
         id="g3512"
         clip-path="url(#clipPath3514)"><text
           transform="matrix(1,0,0,-1,62.25,184.75)"
           style="font-variant:normal;font-weight:normal;font-size:18.02499962px;font-family:Arial;-inkscape-font-specification:ArialMT;writing-mode:lr-tb;fill:#000000;fill-opacity:1;fill-rule:nonzero;stroke:none"
           id="text3518"><tspan
             x="0 17.610426 27.632324 37.654224 47.604027 57.625923 66.638428 76.606247 82.608574 87.006676 97.028572 107.05048 119.6139 125.00337 134.01587 144.03778 154.0056 164.0275 174.04939 183.00783 188.01877 192.02032 202.04222 212.01006 217.021 221.02255 230.03505 235.04601 245.01382 254.02632 259.03726 269.05917 279.00897 283.01053 287.01208 296.02457 306.04648 316.01431"
             y="0"
             sodipodi:role="line"
             id="tspan3520">Whenever new connection is established</tspan></text>
</g></g><path
       d="m 55.12,191.96 -0.84,0.03 0.035,0 -0.847,0.09 0.031,-0.01 -0.84,0.15 0.034,-0.01 -0.832,0.2 0.029,-0.01 -0.825,0.26 0.029,-0.01 -0.818,0.31 0.024,-0.01 -0.81,0.35 0.027,-0.01 -0.795,0.4 0.021,-0.01 -0.787,0.45 0.023,-0.02 -0.765,0.5 0.027,-0.02 -1.493,1.11 0.035,-0.03 -1.41,1.26 0.031,-0.03 -1.312,1.4 0.027,-0.03 -1.207,1.52 0.023,-0.03 -1.095,1.62 0.021,-0.03 -0.96,1.72 0.019,-0.04 -0.818,1.79 0.017,-0.04 -0.652,1.86 0.009,-0.03 -0.27,0.95 0.006,-0.03 -0.217,0.95 0.005,-0.02 -0.173,0.96 0.004,-0.02 -0.128,0.97 0.003,-0.03 -0.083,0.98 0.002,-0.03 -0.023,0.97 0,-0.03 0.06,1.95 -0.002,-0.03 0.18,1.93 -0.003,-0.03 0.292,1.91 -0.005,-0.03 0.397,1.85 -0.006,-0.03 0.495,1.8 -0.009,-0.02 0.578,1.71 -0.011,-0.03 0.66,1.63 -0.012,-0.03 0.728,1.53 -0.017,-0.04 0.795,1.4 -0.02,-0.03 0.848,1.26 -0.027,-0.04 0.9,1.11 -0.021,-0.02 0.458,0.49 -0.023,-0.02 0.473,0.45 -0.025,-0.02 0.487,0.4 -0.027,-0.02 0.488,0.35 -0.026,-0.01 0.487,0.3 -0.04,-0.02 0.502,0.26 -0.039,-0.02 0.502,0.2 -0.05,-0.02 0.502,0.15 -0.049,-0.01 0.51,0.09 -0.058,-0.01 0.514,0.03 0.554,0.04 0.57,0.14 0.568,0.2 0.555,0.29 0.536,0.36 0.529,0.43 0.515,0.49 0.502,0.55 0.49,0.6 0.48,0.66 0.464,0.72 0.451,0.77 0.444,0.81 0.423,0.86 0.805,1.84 0.737,2.01 0.667,2.14 0.584,2.26 0.5,2.35 0.394,2.44 0.243,2.55 -0.996,0.1 -0.241,-2.54 0.004,0.04 -0.39,-2.42 0.005,0.03 -0.495,-2.34 0.005,0.03 -0.578,-2.24 0.007,0.02 -0.66,-2.11 0.008,0.02 -0.727,-1.98 0.011,0.03 -0.795,-1.82 0.009,0.02 -0.412,-0.84 0.01,0.02 -0.435,-0.8 0.008,0.02 -0.443,-0.75 0.011,0.01 -0.45,-0.69 0.016,0.02 -0.465,-0.64 0.015,0.02 -0.472,-0.58 0.019,0.02 -0.48,-0.53 0.024,0.03 -0.487,-0.47 0.032,0.03 -0.495,-0.4 0.036,0.03 -0.495,-0.33 0.045,0.03 -0.502,-0.26 0.059,0.02 -0.51,-0.19 0.056,0.02 -0.502,-0.12 0.079,0.01 -0.51,-0.03 0.008,0 -0.539,-0.04 -0.564,-0.09 -0.553,-0.16 -0.547,-0.22 -0.543,-0.28 -0.52,-0.33 -0.514,-0.37 -0.514,-0.42 -0.496,-0.48 -0.479,-0.52 -0.924,-1.13 -0.871,-1.3 -0.813,-1.43 -0.742,-1.55 -0.671,-1.65 -0.587,-1.75 -0.502,-1.83 -0.404,-1.88 -0.297,-1.93 -0.183,-1.96 -0.061,-1.98 0.023,-1 0.085,-1 0.131,-0.99 0.176,-0.99 0.224,-0.97 0.277,-0.98 0.665,-1.89 0.836,-1.83 0.98,-1.76 1.117,-1.66 1.233,-1.55 1.342,-1.43 1.443,-1.29 1.523,-1.13 0.79,-0.51 0.81,-0.47 0.82,-0.41 0.835,-0.37 0.844,-0.31 0.853,-0.27 0.865,-0.21 0.873,-0.15 0.88,-0.09 0.858,-0.03 0.035,1 z m 6.316,61.97 -2.636,6.17 -3.353,-5.81 5.989,-0.36 z"
       style="fill:#5b9bd5;fill-opacity:1;fill-rule:nonzero;stroke:none"
       id="path3522"
       inkscape:connector-curvature="0" /><path
       d="m 270,299 c 0,10.27 8.42,18.6 18.8,18.6 10.38,0 18.8,-8.33 18.8,-18.6 0,-10.27 -8.42,-18.6 -18.8,-18.6 -10.38,0 -18.8,8.33 -18.8,18.6 z"
       style="fill:#5b9bd5;fill-opacity:1;fill-rule:evenodd;stroke:none"
       id="path3524"
       inkscape:connector-curvature="0" /><g
       id="g3526"><g
         id="g3528"
         clip-path="url(#clipPath3530)"><text
           transform="matrix(1,0,0,-1,28.425,349.3)"
           style="font-variant:normal;font-weight:normal;font-size:18px;font-family:Arial;-inkscape-font-specification:ArialMT;writing-mode:lr-tb;fill:#000000;fill-opacity:1;fill-rule:nonzero;stroke:none"
           id="text3534"><tspan
             x="0 9 18 28.007999 33.012001 43.02 47.015999 57.023998"
             y="0"
             sodipodi:role="line"
             id="tspan3536">Tcp.bind</tspan></text>
</g></g><g
       id="g3538"><g
         id="g3540"
         clip-path="url(#clipPath3542)"><text
           transform="matrix(1,0,0,-1,95.425,349.3)"
           style="font-variant:normal;font-weight:normal;font-size:18px;font-family:Arial;-inkscape-font-specification:ArialMT;writing-mode:lr-tb;fill:#000000;fill-opacity:1;fill-rule:nonzero;stroke:none"
           id="text3546"><tspan
             x="0 6"
             y="0"
             sodipodi:role="line"
             id="tspan3548">()</tspan></text>
</g></g><path
       d="m 560.8,353.85 209.9,0 0,8.15 16.3,-16.3 -16.3,-16.3 0,8.15 -209.9,0 0,16.3 z"
       style="fill:#5b9bd5;fill-opacity:0.50196037;fill-rule:evenodd;stroke:none"
       id="path3550"
       inkscape:connector-curvature="0" /><path
       d="m 507.5,265.3 101.8,0 0,109.8 -101.8,0 0,-109.8 z"
       style="fill:none;stroke:#000000;stroke-width:3;stroke-linecap:butt;stroke-linejoin:miter;stroke-miterlimit:10;stroke-dasharray:none;stroke-opacity:1"
       id="path3552"
       inkscape:connector-curvature="0" /><g
       id="g3554"><g
         id="g3556"
         clip-path="url(#clipPath3558)"><text
           transform="matrix(1,0,0,-1,539.55,313.4)"
           style="font-variant:normal;font-weight:normal;font-size:18px;font-family:Arial;-inkscape-font-specification:ArialMT;writing-mode:lr-tb;fill:#000000;fill-opacity:1;fill-rule:nonzero;stroke:none"
           id="text3562"><tspan
             x="0 10.998 14.994 25.002001"
             y="0"
             sodipodi:role="line"
             id="tspan3564">Flow</tspan></text>
</g></g><path
       d="m 609.3,331.9 30.8,0 0,33.6 -30.8,0 0,-33.6 z"
       style="fill:none;stroke:#000000;stroke-width:3;stroke-linecap:butt;stroke-linejoin:miter;stroke-miterlimit:10;stroke-dasharray:none;stroke-opacity:1"
       id="path3566"
       inkscape:connector-curvature="0" /><path
       d="m 609.3,365.5 30.87,-16.75"
       style="fill:none;stroke:#000000;stroke-width:0.60000002;stroke-linecap:butt;stroke-linejoin:miter;stroke-miterlimit:10;stroke-dasharray:none;stroke-opacity:1"
       id="path3568"
       inkscape:connector-curvature="0" /><path
       d="m 609.3,332.49 30.87,16.21"
       style="fill:none;stroke:#000000;stroke-width:0.60000002;stroke-linecap:butt;stroke-linejoin:miter;stroke-miterlimit:10;stroke-dasharray:none;stroke-opacity:1"
       id="path3570"
       inkscape:connector-curvature="0" /><path
       d="m 609.3,276.5 30.8,0 0,33.6 -30.8,0 0,-33.6 z"
       style="fill:none;stroke:#000000;stroke-width:3;stroke-linecap:butt;stroke-linejoin:miter;stroke-miterlimit:10;stroke-dasharray:none;stroke-opacity:1"
       id="path3572"
       inkscape:connector-curvature="0" /><path
       d="m 609.3,310.1 30.87,-16.75"
       style="fill:none;stroke:#000000;stroke-width:0.60000002;stroke-linecap:butt;stroke-linejoin:miter;stroke-miterlimit:10;stroke-dasharray:none;stroke-opacity:1"
       id="path3574"
       inkscape:connector-curvature="0" /><path
       d="m 609.3,277.09 30.87,16.21"
       style="fill:none;stroke:#000000;stroke-width:0.60000002;stroke-linecap:butt;stroke-linejoin:miter;stroke-miterlimit:10;stroke-dasharray:none;stroke-opacity:1"
       id="path3576"
       inkscape:connector-curvature="0" /><path
       d="m 786.4,285.45 -211.1,0 0,-8.25 -16.5,16.5 16.5,16.5 0,-8.25 211.1,0 0,-16.5 z"
       style="fill:#5b9bd5;fill-opacity:0.50196037;fill-rule:evenodd;stroke:none"
       id="path3578"
       inkscape:connector-curvature="0" /><g
       id="g3580"><g
         id="g3582"
         clip-path="url(#clipPath3584)"><path
           d="m 787.6,294.3 13.9,14.71 0,-6.95 c 24.55,2.92 41.7,13.1 41.7,24.77 l 0,-13.91 c 0,-11.66 -17.15,-21.84 -41.7,-24.76 l 0,-6.95 -13.9,13.09 z"
           style="fill:#5b9bd5;fill-opacity:0.50196037;fill-rule:evenodd;stroke:none"
           id="path3588"
           inkscape:connector-curvature="0" /></g></g><g
       id="g3590"><g
         id="g3592"
         clip-path="url(#clipPath3594)"><path
           d="m 841.11,319.87 c -6.77,11.02 -28.62,18.63 -53.51,18.63 l 0,13.9 c 30.71,0 55.6,-11.45 55.6,-25.58 0,-2.34 -0.7,-4.68 -2.09,-6.95 z"
           style="fill:#497dab;fill-opacity:0.50196037;fill-rule:evenodd;stroke:none"
           id="path3598"
           inkscape:connector-curvature="0" /></g></g><path
       d="m 730.9,330.7 30,0 0,33.4 -30,0 0,-33.4 z"
       style="fill:none;stroke:#000000;stroke-width:3;stroke-linecap:butt;stroke-linejoin:miter;stroke-miterlimit:10;stroke-dasharray:none;stroke-opacity:1"
       id="path3600"
       inkscape:connector-curvature="0" /><path
       d="m 730.9,347.35 29.98,16.75"
       style="fill:none;stroke:#000000;stroke-width:0.60000002;stroke-linecap:butt;stroke-linejoin:miter;stroke-miterlimit:10;stroke-dasharray:none;stroke-opacity:1"
       id="path3602"
       inkscape:connector-curvature="0" /><path
       d="M 760.88,331.09 730.9,347.3"
       style="fill:none;stroke:#000000;stroke-width:0.60000002;stroke-linecap:butt;stroke-linejoin:miter;stroke-miterlimit:10;stroke-dasharray:none;stroke-opacity:1"
       id="path3604"
       inkscape:connector-curvature="0" /><path
       d="m 760.9,263.9 98.6,0 0,110 -98.6,0 0,-110 z"
       style="fill:none;stroke:#000000;stroke-width:3;stroke-linecap:butt;stroke-linejoin:miter;stroke-miterlimit:10;stroke-dasharray:none;stroke-opacity:1"
       id="path3606"
       inkscape:connector-curvature="0" /><g
       id="g3608"><g
         id="g3610"
         clip-path="url(#clipPath3612)"><text
           transform="matrix(1,0,0,-1,790.75,312.08)"
           style="font-variant:normal;font-weight:normal;font-size:18px;font-family:Arial;-inkscape-font-specification:ArialMT;writing-mode:lr-tb;fill:#000000;fill-opacity:1;fill-rule:nonzero;stroke:none"
           id="text3616"><tspan
             x="0 10 18.992001 28.992001"
             y="0"
             sodipodi:role="line"
             id="tspan3618">echo</tspan></text>
</g></g><path
       d="m 730.9,275.9 30,0 0,33.4 -30,0 0,-33.4 z"
       style="fill:none;stroke:#000000;stroke-width:3;stroke-linecap:butt;stroke-linejoin:miter;stroke-miterlimit:10;stroke-dasharray:none;stroke-opacity:1"
       id="path3620"
       inkscape:connector-curvature="0" /><path
       d="m 730.9,292.55 29.98,16.75"
       style="fill:none;stroke:#000000;stroke-width:0.60000002;stroke-linecap:butt;stroke-linejoin:miter;stroke-miterlimit:10;stroke-dasharray:none;stroke-opacity:1"
       id="path3622"
       inkscape:connector-curvature="0" /><path
       d="M 760.88,276.29 730.9,292.5"
       style="fill:none;stroke:#000000;stroke-width:0.60000002;stroke-linecap:butt;stroke-linejoin:miter;stroke-miterlimit:10;stroke-dasharray:none;stroke-opacity:1"
       id="path3624"
       inkscape:connector-curvature="0" /><g
       id="g3626"><g
         id="g3628"
         clip-path="url(#clipPath3630)"><text
           transform="matrix(1,0,0,-1,776.1,274.63)"
           style="font-variant:normal;font-weight:normal;font-size:12px;font-family:Arial;-inkscape-font-specification:ArialMT;writing-mode:lr-tb;fill:#000000;fill-opacity:1;fill-rule:nonzero;stroke:none"
           id="text3634"><tspan
             x="0 6.5999999 13.2 19.799999 26.4 33 39.599998"
             y="0"
             sodipodi:role="line"
             id="tspan3636">append </tspan></text>
</g></g><g
       id="g3638"><g
         id="g3640"
         clip-path="url(#clipPath3642)"><text
           transform="matrix(1,0,0,-1,819.33,274.63)"
           style="font-variant:normal;font-weight:normal;font-size:12px;font-family:Arial;-inkscape-font-specification:ArialMT;writing-mode:lr-tb;fill:#000000;fill-opacity:1;fill-rule:nonzero;stroke:none"
           id="text3646"><tspan
             x="0 3.9960001 7.5840001 11.172"
             y="0"
             sodipodi:role="line"
             id="tspan3648">“!!!</tspan></text>
</g></g><g
       id="g3650"><g
         id="g3652"
         clip-path="url(#clipPath3654)"><text
           transform="matrix(1,0,0,-1,833.92,274.63)"
           style="font-variant:normal;font-weight:normal;font-size:12px;font-family:Arial;-inkscape-font-specification:ArialMT;writing-mode:lr-tb;fill:#000000;fill-opacity:1;fill-rule:nonzero;stroke:none"
           id="text3658"><tspan
             x="0"
             y="0"
             id="tspan3660">\</tspan></text>
</g></g><g
       id="g3662"><g
         id="g3664"
         clip-path="url(#clipPath3666)"><text
           transform="matrix(1,0,0,-1,837.33,274.63)"
           style="font-variant:normal;font-weight:normal;font-size:12px;font-family:Arial;-inkscape-font-specification:ArialMT;writing-mode:lr-tb;fill:#000000;fill-opacity:1;fill-rule:nonzero;stroke:none"
           id="text3670"><tspan
             x="0 6.5999999"
             y="0"
             sodipodi:role="line"
             id="tspan3672">n”</tspan></text>
</g></g><g
       id="g3674"><g
         id="g3676"
         clip-path="url(#clipPath3678)"><text
           transform="matrix(1,0,0,-1,644.72,352.08)"
           style="font-variant:normal;font-weight:normal;font-size:18px;font-family:Arial;-inkscape-font-specification:ArialMT;writing-mode:lr-tb;fill:#000000;fill-opacity:1;fill-rule:nonzero;stroke:none"
           id="text3682"><tspan
             x="0 12.006 20.591999 25.596001 35.604 47.610001 52.613998 58.608002 62.604 72.612"
             y="0"
             sodipodi:role="line"
             id="tspan3684">ByteString</tspan></text>
</g></g><g
       id="g3686"><g
         id="g3688"
         clip-path="url(#clipPath3690)"><text
           transform="matrix(1,0,0,-1,645.25,272.95)"
           style="font-variant:normal;font-weight:normal;font-size:18.02499962px;font-family:Arial;-inkscape-font-specification:ArialMT;writing-mode:lr-tb;fill:#000000;fill-opacity:1;fill-rule:nonzero;stroke:none"
           id="text3694"><tspan
             x="0 12.022675 20.602575 25.613525 35.635426 47.604027 52.614975 58.617298 62.618851 72.640747"
             y="0"
             sodipodi:role="line"
             id="tspan3696">ByteString</tspan></text>
</g></g><g
       id="g3698"><g
         id="g3700"
         clip-path="url(#clipPath3702)"><text
           transform="matrix(1,0,0,-1,483.98,410.05)"
           style="font-variant:normal;font-weight:normal;font-size:18px;font-family:Arial;-inkscape-font-specification:ArialMT;writing-mode:lr-tb;fill:#000000;fill-opacity:1;fill-rule:nonzero;stroke:none"
           id="text3706"><tspan
             x="0 5.0040002 15.012 24.011999 34.02 49.175999 53.172001 63.18 73.188004 86.183998 96.192001 106.2 116.208 126.216 135.216 140.22 144.216 154.224"
             y="0"
             sodipodi:role="line"
             id="tspan3708">IncomingConnection</tspan></text>
</g></g><g
       id="g3710"><g
         id="g3712"
         clip-path="url(#clipPath3714)"><text
           transform="matrix(1,0,0,-1,653,410.05)"
           style="font-variant:normal;font-weight:normal;font-size:18px;font-family:Arial;-inkscape-font-specification:ArialMT;writing-mode:lr-tb;fill:#000000;fill-opacity:1;fill-rule:nonzero;stroke:none"
           id="text3718"><tspan
             x="0 10.008 20.016001 29.016001 34.02 45.018002 49.014 59.021999"
             y="0"
             sodipodi:role="line"
             id="tspan3720">has Flow</tspan></text>
</g></g><g
       id="g3722"><g
         id="g3724"
         clip-path="url(#clipPath3726)"><text
           transform="matrix(1,0,0,-1,563.2,215.73)"
           style="font-variant:normal;font-weight:normal;font-size:18px;font-family:Arial;-inkscape-font-specification:ArialMT;writing-mode:lr-tb;fill:#000000;fill-opacity:1;fill-rule:nonzero;stroke:none"
           id="text3730"><tspan
             x="0 9 19.007999 29.016001 39.023998 49.032001 58.032001 63.035999 67.031998 77.040001 87.047997 92.052002 102.006 112.014 122.022 132.03 136.026 146.034 163.584 167.58 172.584"
             y="0"
             sodipodi:role="line"
             id="tspan3732">connection.handleWith</tspan></text>
</g></g><g
       id="g3734"><g
         id="g3736"
         clip-path="url(#clipPath3738)"><text
           transform="matrix(1,0,0,-1,745.85,215.73)"
           style="font-variant:normal;font-weight:normal;font-size:18px;font-family:Arial;-inkscape-font-specification:ArialMT;writing-mode:lr-tb;fill:#000000;fill-opacity:1;fill-rule:nonzero;stroke:none"
           id="text3742"><tspan
             x="0 5.994 16.002001 25.002001 35.009998 45.018002"
             y="0"
             sodipodi:role="line"
             id="tspan3744">(echo)</tspan></text>
</g></g><path
       d="m 473.8,319 c 0,45.84 37.21,83 83.1,83 45.89,0 83.1,-37.16 83.1,-83 0,-45.84 -37.21,-83 -83.1,-83 -45.89,0 -83.1,37.16 -83.1,83 z"
       style="fill:#5b9bd5;fill-opacity:0.30196001;fill-rule:evenodd;stroke:none"
       id="path3746"
       inkscape:connector-curvature="0" /><g
       id="g3748"><path
         d="M 288.8,280.4 556.97,235.96"
         style="fill:none;stroke:#5b9bd5;stroke-width:2;stroke-linecap:butt;stroke-linejoin:miter;stroke-miterlimit:10;stroke-dasharray:8, 6;stroke-dashoffset:0;stroke-opacity:1"
         id="path3750"
         inkscape:connector-curvature="0" /></g></g></svg>